<svg width="85" height="35" viewBox="0 0 85 35" fill="none" xmlns="http://www.w3.org/2000/svg">
<path d="M56.3658 30.1112C56.3668 30.1044 56.3673 30.1035 56.3659 30.1106L56.3658 30.1112Z" fill="#2B1105"/>
<path fill-rule="evenodd" clip-rule="evenodd" d="M20.5 3.12915C21.6222 3.30629 22.6258 3.76542 23.5011 4.50073C24.3102 5.18037 24.7604 6.08126 24.8727 7.1589H25.4714L25.9673 1.3737C23.1057 0.449428 20.7433 0 18.8661 0C13.8679 0 9.47215 1.91781 5.65735 5.79513C1.8736 9.64143 0 14.0554 0 19.0583C0 23.0175 1.37147 26.5578 4.13875 29.6987C6.9379 32.8395 10.0796 34.3672 13.5782 34.3672C16.467 34.3672 19.164 33.6848 21.6779 32.3193C23.607 31.2714 25.8284 29.5033 27.9244 27.4115L28.6376 26.6997L28.8575 27.683C29.2258 29.3293 30.1059 30.7125 31.5235 31.8427C33.4807 33.3777 36.1508 34.1749 39.5921 34.1749C43.0311 34.1749 45.9526 33.3942 48.3809 31.8573L48.3836 31.8556C49.5757 31.1105 50.5542 30.0477 51.3148 28.6481C52.0684 27.2614 52.484 25.634 52.5457 23.7511L52.5701 23.008L53.2755 23.2431C53.3882 23.2807 53.5779 23.3108 53.8692 23.3108C55.1587 23.3108 56.4357 22.7896 57.71 21.6732L59.303 20.2814L58.5934 22.2889L55.1246 31.3392L55.1225 31.3446C54.7512 32.2558 54.2887 32.9766 53.7054 33.4432L53.6963 33.4505L53.687 33.4574C53.062 33.9157 52.1464 34.0935 51.0515 34.0935H50.9332V34.3302H59.2458V34.0935H59.0313C57.8935 34.0935 57.0631 34.049 56.626 33.9298C56.3971 33.8673 56.1641 33.7635 55.9832 33.5825C55.7878 33.3871 55.6885 33.1365 55.6885 32.8659C55.6885 32.4813 55.8279 31.9097 56.05 31.211C56.1613 30.8452 56.2437 30.5665 56.298 30.3728C56.3253 30.2752 56.3443 30.2034 56.356 30.1549C56.3583 30.1455 56.3601 30.1377 56.3615 30.1312V30.07L59.7092 21.4471H72.5847L75.9941 30.3717L75.9979 30.383C76.1588 30.866 76.2814 31.2498 76.3643 31.5316C76.4056 31.672 76.4387 31.7926 76.4619 31.8901C76.4805 31.9684 76.507 32.0867 76.507 32.1929C76.507 32.8144 76.2475 33.3355 75.7214 33.6703C75.2377 33.9781 74.5832 34.0935 73.8372 34.0935H72.8536V34.3302H84.0505V34.0935H82.8746C82.0803 34.0935 81.3837 33.894 80.8654 33.4189L80.8476 33.4026L80.8313 33.3849C80.427 32.9438 80.0466 32.3288 79.6822 31.5669L79.6725 31.5466L68.0893 1.22308C68.0816 1.23529 68.0737 1.2476 68.0657 1.25998C67.9687 1.40982 67.829 1.60833 67.6507 1.8515L67.6453 1.85893L67.6396 1.86617C67.277 2.32765 66.8824 2.78787 66.4562 3.2469L66.4492 3.25443L66.4419 3.26169C66.2259 3.47771 66.0314 3.65587 65.8615 3.78801C65.7918 3.84223 65.7102 3.90183 65.6206 3.95429L60.8169 16.4877L60.7991 16.5202C60.6114 16.8643 60.4475 17.187 60.2934 17.4924L60.2515 17.5754C60.114 17.8482 59.9815 18.1109 59.8494 18.354C59.5595 18.8874 59.2447 19.3786 58.7999 19.7653C57.9501 20.5043 56.9027 20.8629 55.6959 20.8629C55.442 20.8629 55.0852 20.8078 54.6578 20.7191C54.2187 20.628 53.6666 20.4928 53.0044 20.3151L53.0011 20.3142C51.7484 19.9697 50.6947 19.8053 49.8313 19.8053C47.1741 19.8053 44.664 21.7678 42.3654 26.1137L42.6585 26.1975C43.4919 24.8798 44.3072 23.8825 45.1103 23.2401C46.0274 22.5064 47.166 22.1571 48.4853 22.1571C49.4415 22.1571 50.2394 22.2697 50.8175 22.5488C51.1141 22.6919 51.3723 22.8883 51.5556 23.1537C51.7419 23.4236 51.8281 23.7323 51.8281 24.0578C51.8281 26.8761 50.9146 29.039 49.0023 30.4202C47.154 31.755 44.804 32.3999 41.9957 32.3999C39.1701 32.3999 36.8865 31.633 35.2184 30.0345C33.5777 28.4621 32.7401 26.5735 32.7401 24.3942C32.7401 22.876 33.0443 21.478 33.6613 20.2098L33.6658 20.2005L33.6707 20.1914C33.9594 19.65 34.3519 19.1534 34.8402 18.7C35.3296 18.2432 35.764 17.8746 36.1412 17.6003L36.1504 17.5936L36.1598 17.5873C36.5902 17.3004 37.1577 17.0281 37.8457 16.7655C38.5125 16.4799 39.0682 16.2664 39.5069 16.1303C39.9417 15.9641 40.5423 15.77 41.3014 15.5484C41.8543 15.3641 42.296 15.214 42.6281 15.0978L42.6901 14.3959C39.8617 14.2416 37.5742 13.626 35.8734 12.5028L35.8693 12.5001C34.082 11.2971 33.1247 9.72854 33.1247 7.80971C33.1247 5.92678 33.7125 4.42564 34.965 3.41259C36.195 2.41773 37.9775 1.96723 40.217 1.96723C42.8472 1.96723 44.9092 2.33746 46.3316 3.14521C47.6438 3.89045 48.3894 4.99822 48.5334 6.42174L49.0459 6.45377L49.5327 1.74845C47.8481 0.729727 45.4978 0.192292 42.4283 0.192292C39.2304 0.192292 36.4953 1.02839 34.1971 2.68262C31.9704 4.30811 30.869 6.48035 30.869 9.25185C30.869 10.904 31.4229 12.2843 32.5333 13.4263C33.6611 14.5225 35.2472 15.1437 37.3569 15.2354L40.8141 15.428L37.4216 16.337C35.1695 16.7022 33.1383 17.7359 31.3212 19.4607L31.3175 19.4641C30.8561 19.8943 30.4548 20.3542 30.1136 20.8445L28.9633 23.3327C28.8071 23.9188 28.7108 24.5366 28.6744 25.1867L28.6634 25.3819L28.5325 25.5271C26.8511 27.3917 24.8174 29.0971 22.9716 30.076C20.8055 31.2246 18.7924 31.8231 16.9432 31.8231C14.001 31.8231 10.9716 30.6389 7.86525 28.35L7.86148 28.3472C6.23657 27.1285 4.90316 25.4002 3.84808 23.1912C2.78168 20.9584 2.25564 18.423 2.25564 15.5972C2.25564 11.6609 3.70003 8.51423 6.6004 6.22091C9.46036 3.95955 12.8202 2.8325 16.6548 2.8325C18.1763 2.8325 19.4611 2.92902 20.5 3.12915ZM60.0504 20.5375H72.1399L66.1506 4.67697L60.0504 20.5375Z" fill="#2B1105"/>
</svg>
