<svg width="104" height="104" viewBox="0 0 104 104" fill="none" xmlns="http://www.w3.org/2000/svg">
<path d="M67.5516 62.5592C67.5526 62.5524 67.5531 62.5515 67.5517 62.5586L67.5516 62.5592Z" fill="#2B1105"/>
<path fill-rule="evenodd" clip-rule="evenodd" d="M31.6858 35.5771C32.808 35.7543 33.8116 36.2134 34.6869 36.9487C35.496 37.6284 35.9462 38.5293 36.0585 39.6069H36.6572L37.1531 33.8217C34.2915 32.8974 31.929 32.448 30.0518 32.448C25.0536 32.448 20.6579 34.3658 16.8431 38.2431C13.0594 42.0894 11.1858 46.5034 11.1858 51.5063C11.1858 55.4655 12.5573 59.0058 15.3245 62.1467C18.1237 65.2875 21.2654 66.8152 24.764 66.8152C27.6528 66.8152 30.3498 66.1328 32.8636 64.7673C34.7927 63.7194 37.0142 61.9513 39.1102 59.8594L39.8234 59.1477L40.0433 60.131C40.4116 61.7773 41.2917 63.1605 42.7093 64.2907C44.6665 65.8257 47.3366 66.6229 50.7779 66.6229C54.2169 66.6229 57.1384 65.8422 59.5667 64.3053L59.5694 64.3036C60.7615 63.5585 61.74 62.4957 62.5006 61.0961C63.2542 59.7094 63.6698 58.082 63.7315 56.1991L63.7559 55.456L64.4613 55.6911C64.574 55.7287 64.7637 55.7588 65.055 55.7588C66.3444 55.7588 67.6215 55.2376 68.8958 54.1212L70.4888 52.7294L69.7792 54.7369L66.3104 63.7872L66.3082 63.7926C65.937 64.7038 65.4745 65.4246 64.8912 65.8912L64.8821 65.8985L64.8727 65.9053C64.2477 66.3637 63.3322 66.5415 62.2373 66.5415H62.119V66.7782H70.4316V66.5415H70.2171C69.0792 66.5415 68.2489 66.497 67.8118 66.3778C67.5829 66.3153 67.3499 66.2115 67.169 66.0305C66.9736 65.8351 66.8743 65.5845 66.8743 65.3139C66.8743 64.9293 67.0137 64.3577 67.2358 63.659C67.3471 63.2932 67.4295 63.0145 67.4837 62.8208C67.5111 62.7232 67.5301 62.6514 67.5418 62.6029C67.544 62.5935 67.5459 62.5857 67.5473 62.5792V62.518L70.895 53.8951H83.7705L87.1799 62.8197L87.1836 62.831C87.3446 63.314 87.4672 63.6978 87.5501 63.9796C87.5914 64.12 87.6245 64.2406 87.6477 64.3381C87.6663 64.4164 87.6928 64.5346 87.6928 64.6409C87.6928 65.2624 87.4333 65.7835 86.9072 66.1183C86.4235 66.4261 85.769 66.5415 85.023 66.5415H84.0394V66.7782H95.2363V66.5415H94.0604C93.2661 66.5415 92.5695 66.342 92.0512 65.8669L92.0334 65.8506L92.0171 65.8329C91.6128 65.3918 91.2324 64.7768 90.868 64.0149L90.8583 63.9946L79.2751 33.6711C79.2674 33.6833 79.2595 33.6956 79.2515 33.708C79.1545 33.8578 79.0148 34.0563 78.8365 34.2995L78.831 34.3069L78.8253 34.3142C78.4628 34.7756 78.0682 35.2359 77.642 35.6949L77.635 35.7024L77.6277 35.7097C77.4117 35.9257 77.2171 36.1039 77.0472 36.236C76.9775 36.2902 76.896 36.3498 76.8064 36.4023L72.0026 48.9357L71.9849 48.9682C71.7972 49.3123 71.6333 49.635 71.4792 49.9404L71.4373 50.0234C71.2998 50.2962 71.1673 50.5589 71.0352 50.802C70.7453 51.3354 70.4305 51.8266 69.9857 52.2133C69.1359 52.9523 68.0885 53.3109 66.8817 53.3109C66.6278 53.3109 66.271 53.2558 65.8436 53.1671C65.4045 53.076 64.8524 52.9408 64.1902 52.7631L64.1869 52.7622C62.9342 52.4177 61.8805 52.2533 61.017 52.2533C58.3599 52.2533 55.8498 54.2158 53.5512 58.5617L53.8443 58.6455C54.6777 57.3278 55.493 56.3305 56.2961 55.6881C57.2132 54.9544 58.3518 54.6051 59.671 54.6051C60.6273 54.6051 61.4252 54.7177 62.0033 54.9967C62.2999 55.1399 62.5581 55.3363 62.7413 55.6017C62.9277 55.8716 63.0138 56.1803 63.0138 56.5057C63.0138 59.3241 62.1004 61.487 60.1881 62.8682C58.3398 64.203 55.9898 64.8479 53.1814 64.8479C50.3559 64.8479 48.0723 64.081 46.4042 62.4825C44.7635 60.9101 43.9259 59.0215 43.9259 56.8422C43.9259 55.324 44.2301 53.926 44.8471 52.6578L44.8516 52.6485L44.8564 52.6394C45.1452 52.098 45.5377 51.6014 46.026 51.148C46.5154 50.6912 46.9498 50.3226 47.327 50.0483L47.3362 50.0416L47.3456 50.0353C47.776 49.7484 48.3435 49.4761 49.0315 49.2135C49.6983 48.9279 50.2539 48.7144 50.6927 48.5783C51.1274 48.4121 51.7281 48.218 52.4872 47.9964C53.0401 47.8121 53.4818 47.662 53.8139 47.5458L53.8758 46.8439C51.0475 46.6896 48.76 46.074 47.0592 44.9508L47.0551 44.9481C45.2678 43.7451 44.3105 42.1765 44.3105 40.2577C44.3105 38.3748 44.8983 36.8736 46.1507 35.8606C47.3807 34.8657 49.1633 34.4152 51.4028 34.4152C54.033 34.4152 56.095 34.7855 57.5174 35.5932C58.8296 36.3384 59.5752 37.4462 59.7192 38.8697L60.2317 38.9018L60.7184 34.1964C59.0339 33.1777 56.6836 32.6403 53.6141 32.6403C50.4162 32.6403 47.681 33.4764 45.3829 35.1306C43.1562 36.7561 42.0548 38.9284 42.0548 41.6998C42.0548 43.352 42.6087 44.7323 43.7191 45.8743C44.8469 46.9705 46.433 47.5916 48.5426 47.6834L51.9999 47.876L48.6073 48.785C46.3553 49.1502 44.3241 50.1839 42.5069 51.9087L42.5033 51.9121C42.0419 52.3423 41.6406 52.8021 41.2994 53.2925L40.1491 55.7807C39.9929 56.3668 39.8966 56.9846 39.8602 57.6347L39.8492 57.8299L39.7183 57.9751C38.0369 59.8397 36.0031 61.5451 34.1574 62.524C31.9913 63.6726 29.9782 64.2711 28.129 64.2711C25.1867 64.2711 22.1574 63.0869 19.051 60.798L19.0473 60.7952C17.4223 59.5765 16.0889 57.8482 15.0339 55.6392C13.9675 53.4064 13.4414 50.871 13.4414 48.0452C13.4414 44.1089 14.8858 40.9622 17.7862 38.6689C20.6461 36.4075 24.006 35.2805 27.8406 35.2805C29.3621 35.2805 30.6469 35.377 31.6858 35.5771ZM71.2362 52.9855H83.3257L77.3364 37.125L71.2362 52.9855Z" fill="#2B1105"/>
<circle cx="52" cy="52" r="51.3067" stroke="#2B1105" stroke-width="1.38667"/>
</svg>
